<svg id="bold" enable-background="new 0 0 32 32" height="512" viewBox="0 0 32 32" width="512" xmlns="http://www.w3.org/2000/svg"><path d="m26 32h-20c-3.314 0-6-2.686-6-6v-20c0-3.314 2.686-6 6-6h20c3.314 0 6 2.686 6 6v20c0 3.314-2.686 6-6 6z" fill="#e3f8fa"/><path d="m20.5 14h-.5v-2c0-2.206-1.794-4-4-4s-4 1.794-4 4v2h-.5c-.827 0-1.5.673-1.5 1.5v7c0 .827.673 1.5 1.5 1.5h9c.827 0 1.5-.673 1.5-1.5v-7c0-.827-.673-1.5-1.5-1.5zm-7.167-2c0-1.47 1.196-2.667 2.667-2.667s2.667 1.197 2.667 2.667v2h-5.334zm3.334 7.148v1.519c0 .368-.298.667-.667.667s-.667-.299-.667-.667v-1.519c-.397-.231-.667-.656-.667-1.148 0-.735.598-1.333 1.333-1.333s1.333.598 1.333 1.333c.001.491-.269.917-.665 1.148z" fill="#26c6da"/></svg>