<svg id="Capa_1" enable-background="new 0 0 497 497" height="512" viewBox="0 0 497 497" width="512" xmlns="http://www.w3.org/2000/svg"><g><path d="m384.211 47.8v390.91h-304.86c-8.79 0-15.91-7.13-15.91-15.92v-292.51l100.94-98.4h203.91c8.79 0 15.92 7.13 15.92 15.92z" fill="#c8effe"/><path d="m384.211 286.86v151.85h-151.65v-110.14c0-23.04 18.67-41.71 41.71-41.71z" fill="#99e6fc"/><path d="m368.295 31.883h-19.797c8.791 0 15.918 7.126 15.918 15.917v390.908h19.797v-390.907c0-8.791-7.127-15.918-15.918-15.918z" fill="#99e6fc"/><path d="m351.28 15.92v390.91h-304.86c-8.79 0-15.92-7.13-15.92-15.92v-300.71s0-2.85 1.54-6.23l82.57-82.43c3.38-1.54 6.23-1.54 6.23-1.54h214.52c8.79 0 15.92 7.13 15.92 15.92z" fill="#eaf6ff"/><path d="m298.066 286.859 53.215 119.971h-118.72v-78.26c0-23.04 18.67-41.71 41.71-41.71z" fill="#c8effe"/><path d="m335.361 0h-23.797c8.791 0 15.918 7.126 15.918 15.917v390.908h23.797v-390.908c0-8.791-7.127-15.917-15.918-15.917z" fill="#99e6fc"/><path d="m424.792 497h-126.726c-23.034 0-41.707-18.673-41.707-41.707v-126.726c0-23.034 18.673-41.707 41.707-41.707h126.726c23.034 0 41.707 18.673 41.707 41.707v126.726c.001 23.034-18.672 41.707-41.707 41.707z" fill="#0593fc"/><path d="m424.792 286.859h-23.797c23.034 0 41.707 18.673 41.707 41.707v126.726c0 23.034-18.673 41.707-41.707 41.707h23.797c23.034 0 41.707-18.673 41.707-41.707v-126.725c.001-23.035-18.672-41.708-41.707-41.708z" fill="#0181fa"/><path d="m413.948 376.488-37.634-46.898c-7.64-9.52-22.13-9.52-29.769 0l-37.634 46.898c-9.337 11.021-.694 29.225 13.817 28.804h6.1c4.692 0 8.496 3.804 8.496 8.496v38.097c0 5.26 4.264 9.525 9.525 9.525h29.164c5.26 0 9.525-4.264 9.525-9.525v-38.097c0-4.692 3.804-8.496 8.496-8.496h6.099c14.506.422 23.155-17.781 13.815-28.804z" fill="#c8effe"/><path d="m413.948 376.488-37.634-46.898c-7.64-9.52-22.13-9.52-29.769 0l-2.087 2.6c5.677-.128 11.4 2.232 15.32 7.117l30.374 37.181c9.34 11.022.691 29.225-13.817 28.804h-6.099c-4.692 0-8.496 3.804-8.496 8.496v38.096c0 5.26-4.264 9.525-9.525 9.525h23.797c5.26 0 9.525-4.264 9.525-9.525v-38.097c0-4.692 3.804-8.496 8.496-8.496h6.099c14.507.423 23.156-17.78 13.816-28.803z" fill="#99e6fc"/><path d="m114.61 1.54v66.51c0 8.79-7.13 15.92-15.92 15.92h-66.65c.73-1.61 1.8-3.34 3.4-4.93l55.37-55.28 18.87-18.84v.02c1.59-1.6 3.32-2.67 4.93-3.4z" fill="#c8effe"/><path d="m114.61 1.54v66.51c0 8.79-7.13 15.92-15.92 15.92h-23.79c8.79 0 15.91-7.13 15.91-15.92v-44.29l18.87-18.84v.02c1.59-1.6 3.32-2.67 4.93-3.4z" fill="#99e6fc"/><path d="m238.5 77.071h-70.428c-9.051 0-16.388-7.337-16.388-16.388v-.034c0-9.051 7.337-16.388 16.388-16.388h70.428c9.051 0 16.388 7.337 16.388 16.388v.034c0 9.051-7.337 16.388-16.388 16.388z" fill="#99e6fc"/><path d="m238.5 44.26h-23.797c9.051 0 16.388 7.337 16.388 16.388v.034c0 9.051-7.337 16.388-16.388 16.388h23.797c9.051 0 16.388-7.337 16.388-16.388v-.034c0-9.05-7.337-16.388-16.388-16.388z" fill="#62dbfb"/><g><g><path d="m294.971 148.076h-207.834c-4.142 0-7.5-3.358-7.5-7.5s3.358-7.5 7.5-7.5h207.834c4.142 0 7.5 3.358 7.5 7.5s-3.358 7.5-7.5 7.5z" fill="#99e6fc"/></g><g><path d="m294.971 192.549h-207.834c-4.142 0-7.5-3.358-7.5-7.5s3.358-7.5 7.5-7.5h207.834c4.142 0 7.5 3.358 7.5 7.5s-3.358 7.5-7.5 7.5z" fill="#99e6fc"/></g><g><path d="m294.971 237.021h-38.811c-4.142 0-7.5-3.358-7.5-7.5s3.358-7.5 7.5-7.5h38.811c4.142 0 7.5 3.358 7.5 7.5s-3.358 7.5-7.5 7.5z" fill="#99e6fc"/></g><g><path d="m220.956 237.021h-133.819c-4.142 0-7.5-3.358-7.5-7.5s3.358-7.5 7.5-7.5h133.818c4.142 0 7.5 3.358 7.5 7.5s-3.357 7.5-7.499 7.5z" fill="#99e6fc"/></g><g><path d="m177.763 281.494h-90.626c-4.142 0-7.5-3.358-7.5-7.5s3.358-7.5 7.5-7.5h90.625c4.142 0 7.5 3.358 7.5 7.5s-3.357 7.5-7.499 7.5z" fill="#99e6fc"/></g><g><path d="m177.763 325.966h-90.626c-4.142 0-7.5-3.358-7.5-7.5s3.358-7.5 7.5-7.5h90.625c4.142 0 7.5 3.358 7.5 7.5s-3.357 7.5-7.499 7.5z" fill="#99e6fc"/></g></g></g></svg>