<?xml version="1.0" standalone="no"?>
<!DOCTYPE svg PUBLIC "-//W3C//DTD SVG 20010904//EN"
 "http://www.w3.org/TR/2001/REC-SVG-20010904/DTD/svg10.dtd">
<svg version="1.0" xmlns="http://www.w3.org/2000/svg"
 width="700.000000pt" height="700.000000pt" viewBox="0 0 700.000000 700.000000"
 preserveAspectRatio="xMidYMid meet">
<metadata>
Created by potrace 1.11, written by Peter Selinger 2001-2013
</metadata>
<g transform="translate(0.000000,700.000000) scale(0.100000,-0.100000)"
fill="#000000" stroke="none">
<path d="M1142 6989 c-436 -57 -816 -332 -1011 -732 -35 -73 -85 -210 -95
-263 -2 -11 -10 -48 -17 -84 -12 -54 -14 -476 -14 -2400 0 -1284 3 -2355 7
-2380 15 -93 20 -113 42 -188 79 -263 250 -512 455 -665 31 -23 58 -45 59 -49
2 -5 9 -8 15 -8 6 0 18 -6 26 -14 45 -39 227 -121 346 -155 178 -52 57 -49
2570 -47 1287 1 2354 5 2370 9 17 5 50 13 75 18 186 40 395 142 545 264 216
176 387 445 445 701 18 78 20 86 28 134 4 25 7 1098 7 2385 0 2240 -1 2344
-19 2425 -96 444 -391 801 -799 965 -80 32 -196 66 -282 81 -56 10 -4676 13
-4753 3z"/>
</g>
</svg>
